<?xml version="1.0" encoding="UTF-8"?>
<svg xmlns="http://www.w3.org/2000/svg" version="1.1" viewBox="0 0 548.44 450">
  <defs>
    <style>
      .cls-1 {
        fill: #231f20;
      }

      .cls-2 {
        fill: #fff;
      }

      .cls-3 {
        fill: #ee3324;
      }

      .cls-4 {
        fill: #1c75bc;
      }

      .cls-5 {
        fill: #0587c8;
      }
    </style>
  </defs>
  <!-- Generator: Adobe Illustrator 28.7.1, SVG Export Plug-In . SVG Version: 1.2.0 Build 142)  -->
  <g>
    <g id="Layer_1">
      <circle class="cls-5" cx="277.22" cy="221.84" r="204.72"/>
      <path class="cls-3" d="M-401.36,254.19"/>
      <g>
        <path class="cls-2" d="M496.36,266.03c-.23-5.53-1.6-10.94-2.97-16.3-1.72-6.76-3.45-13.53-5.17-20.29-1.01-3.96-2.03-7.95-3.65-11.7-4.96-11.49-15.01-19.81-23.76-28.75-8.75-8.94-16.9-20.13-16.24-32.63.79-15.15-8.75-31.03-21.59-39.13-4.79-3.02-10.17-5.24-14.25-9.18-2.8-2.71-4.84-6.09-6.93-9.38-8.42-13.24-18.29-25.56-29.37-36.67-5.72-5.74-7.49-6.28-14.87-9.63-7.35-3.34-14.43-7.3-21.12-11.82-2.49,7.4-12.05,9.65-19.78,8.57-9.78-1.36-18.84-6.02-28.57-7.75-8.86-1.58-17.98-.69-26.85.8-30.43,5.1-59.66,17.19-84.8,35.08-5.61,4-11.1,8.37-15.75,13.43-.12-2.5-.67-4.98-1.7-7.27-13.44,15.09-26.87,30.17-40.31,45.26-8.74,9.82-17.64,19.77-28.71,26.85-6.54,4.18-13.9,7.43-19.01,13.28,4.7-2.24,9.4-4.47,14.11-6.71,2.88-1.37-8.91,6.74-5.77,7.29,2.69.47,1.19,3.14-.18,5.69-1.99.51-.07,2.74-2.02,3.37-7.5,2.41,9.01,0-33.8,14.53,11.21-3.62,27.99-7.48,38.37-9.89,1.55-.36,3.04-.93,4.45-1.66.94-.48,1.84-1.55,2.94-1.66,2.08-.21.48,1.57-.26,2.18-2.12,1.76-4.28,3.46-6.46,5.14-4.4,3.4-8.88,6.7-13.36,10-2.45,1.81-5.07,3.52-7.35,5.56,7.02-2.49,14.04-4.99,21.07-7.48-2.65,5.33-5.8,10.41-9.4,15.15l3.84-2.2c-5.83,7.27-11.65,14.55-17.48,21.82,1.6-1.37,7.47-2.76,9.57-2.9.63,9.26-9.59,17.89-15.76,24.83-10.28,11.57-12.33,13.48-29.81,26.17.73-.31,3.24-1.09,3.94-.35.8.85-.27,2.52-1.06,3.08,3.14-1.93,8.42-2.24,12.01-2.45,2.4-.15,5.24.13,6.52,2.17,1.22,1.95-1.21,5.2-3.45,5.75,6.84-.43,4.57.06,6.25.22,2.65.26,5.87.96,6.63,3.51.66,2.21-1.02,4.4-2.67,6.01-4.63,4.53-10.03,8.29-15.88,11.06,1.9-.9,5.49.48,7.43.87s3.92.75,5.84,1.29c4.3,1.21-.48,1.87,2.13,5.54,3.99,5.61,4.63,13.38,1.79,19.64-1.55,1.92-3.18,3.78-4.73,5.63-5.18,6.18-9.97,14.21-7.51,21.88.9-.38,1.78-.8,2.68-1.2,1.88,2.24,4.67,3.73,7.6,3.73-10.72,12.53-31.93,31.07-43.29,43.02,35.23-23.66,29.31-15.87,37.85-17.94,9.79-2.37,20.23-3.51,30.17-5.43,8.95-1.73,17.99-3.5,26.29-7.27.09-.04.18-.09.27-.13-1.34,2.81-1.56,5.79.73,7.73,2.15-.93,4.72-.83,6.79.27,1.4,4.63-3.48,8.47-7.42,11.28-9.04,6.44-16.32,15.32-20.86,25.45,29.49-17.34,61.48-35.28,95.56-32.39,26.51-4.95,54.73-.09,78.06,13.44,6.49,3.76,12.67,8.2,19.74,10.7,8.11,2.87,16.9,3.02,25.5,2.7,13.16-.5,30.97.93,31.98-12.19,2.49-32.54,15.18-64.22,35.86-89.46,8.92-10.9,20.69-21.23,34.77-21.58,5.01-.13,9.96,1.05,14.83,2.25,9.06,2.23,18.51,4.81,25.3,11.21,5.68,5.35,8.88,12.85,10.93,20.38,2.08,7.64,3.12,15.57,3.11,23.49,13.55-10.5,24.11-24.82,30.15-40.86,2.96-7.86,4.84-16.07,6.59-24.29,1.31-6.17,2.55-12.43,2.3-18.73ZM105.86,323.29c-.91.39-1.87.79-2.84,1.11,8.56-6.72,19.23-13.69,28.76-8.93.86.43,1.65.95,2.39,1.53-2.62-.19-5.34,0-7.86.38-7.03,1.09-13.92,3.08-20.45,5.91ZM136.49,355.34c-1.91,2.21-4.97,2.96-7.77,3.79-1.22.36-2.43.78-3.62,1.22,4.46-4.3,8.69-8.89,12.86-13.45.69-.76,1.39-1.52,2.07-2.29-.33,1.57-.69,3.13-1.05,4.68-.5,2.14-1.04,4.38-2.48,6.04Z"/>
        <path class="cls-2" d="M57.34,232.83c.78-.97,1.56-1.94,2.33-2.91-.95.81-1.76,1.8-2.33,2.91Z"/>
      </g>
    </g>
    <g id="Layer_2">
      <path class="cls-4" d="M314.24,183.88c0,15.34-14.13,28.61-33.43,28.61s-36.45-13.27-36.45-28.61,7.53-25.41,26.83-25.41,43.06,10.07,43.06,25.41Z"/>
      <g>
        <path class="cls-1" d="M353.97,144.96s-45.49-25.95-65.4-50.82c0,0,5.46,13.67,18.48,27.01,0,0-43-24.52-58.29-42.29,0,0,37.67,53.31,105.2,66.11Z"/>
        <path class="cls-1" d="M224.84,225.61c-27.96,8.14-40.99,26.21-40.99,26.21l19.9-8.29c4.74,7.11,32.22,3.32,32.22,3.32-35.78-6.63-11.14-21.24-11.14-21.24Z"/>
      </g>
      <g>
        <path class="cls-1" d="M247.76,424.44c.15.02.47.07.95.15-.32-.05-.62-.1-.95-.15Z"/>
        <path class="cls-1" d="M247.66,424.42s.07.01.1.02c-.06,0-.1-.02-.1-.02Z"/>
      </g>
      <path class="cls-1" d="M492.94,223.51c-8.12-24.95-30.92-39.1-30.92-39.1-2.49-9.6-11.02-15.64-11.02-15.64.36-17.77-2.13-27.37-13.1-43.36-10.97-15.99-29.55-25.23-29.55-25.23-43-75.35-100.58-71.44-100.58-71.44l10.66,13.86c-75.35-24.88-138.61,18.13-138.61,18.13l11.02,2.84c-11.22,3.47-21.96,8.59-31.42,15.57-3.65,2.69-7.11,5.65-10.32,8.86-3.08,3.09-6.22,6.17-8.85,9.67-2.56,3.4-4.22,7.35-6.26,11.06-2.12,3.86-4.89,7.25-7.73,10.6-5.87,6.93-12.48,13.19-19.06,19.42-1.88,1.78-3.76,3.55-5.63,5.33-.89.22-1.83.34-2.71.61-2.72.85-4.66,3.19-6.61,5.27-1.95,2.08-4.39,4.12-7.24,4.05-.95-.02-1.91-.29-2.84-.07-2.09.48-2.88,2.95-3.68,4.95-1.03,2.57-2.57,4.79-4.45,6.76-3.91,4.1-9.25,7.09-14.33,9.8,4.77-1.58,9.64-3.17,14.67-3.17.62,0-2.57,5.37-2.96,5.78-6.42,6.74-19.4,12.17-28.09,14.91,8.61-2.71,17.28-4.9,26.13-6.74,1.81-.38,4.29-.35,4.79,1.42.35,1.23-.61,2.42-1.5,3.33-5.46,5.64-11.22,10.98-17.26,15.99,3.36-2.79,17.03-11.54,17.21-2.22.1,5.49-2.94,8.23-6.04,12.44-1.92,2.61-3.91,5.17-5.95,7.69l-44.76,26.94,49.91-20.85s-9,23.02-42.18,47.05c0,0,21.8-12.01,41.23-38.06,19.43-26.05,21.11-30.32,21.11-30.32l-14.09,8.48c1.05-1.12,2.07-2.25,3.04-3.42,2.3-2.77,3.46-4.78,6.53-6.84,3.49-2.35,6.75-5.04,9.69-8.05.35-.36.7-.76,1.02-1.18,1.93-1.68,4.06-3.57,6.4-5.7,11.42-10.4,60.29-48.57,64.99-51.95-9.68,9.78-69.43,61.36-69.43,61.36,4.47-2.2,9.54-3.67,13.96-4.64-12.02,6.05-21.98,19.66-29.5,29.34-4.99,6.42-8.55,11.35-13.05,18.13-1.72,2.59-3.38,3.9-5.33,6.31-.4.49-2.94,3-3.38,3.47-2.99,3.15-28.71,23.62-31.66,26.83,1.16-1.26,3.77-2.11,5.41-2.33,2.55-.35,5.39-.86,7.99-.9,1.87-.03,4.07.25,5,1.88.68,1.19.38,2.75-.38,3.9-.76,1.14-1.91,1.96-3.03,2.76,2.79-1,6.03-.64,8.52.96.11.07.21.15.31.23,1.39,1.78,1.15,4.44,0,6.39-3.31,5.66-11.77,8.48-17.67,10.44-1.31.43-4.69,1.96-6.15,1.35,1.8.76,3.45.81,4.84,2.32.76.83,2.38,3.17,1.9,4.41.68-1.75,1.99-3.2,3.52-4.27,2.46-1.73,6.48-1.33,9.39-.62-.04,0-.07.02-.11.03,0,0,10.31,2.96-3.55,15.76.63-.58,3.71-.16,4.49-.13,2.07.09,5.17.21,6.69,1.86,2.19,2.37-.47,5.44-2,7.34-3.77,4.67-9.1,8.39-14.31,11.34-2.2,1.24-4.48,2.35-6.81,3.32,1.36-.07,2.74.13,4.03.57.98.34,1.94.84,2.59,1.65,1,1.25,1.06,3.06.53,4.57s-1.58,2.78-2.67,3.95c-1.8,1.94-3.77,3.71-5.92,5.25,2.47-1.22,5.07-2.48,7.83-2.35,2.75.12,5.63,2.16,5.66,4.91.02,1.5-.78,2.87-1.54,4.16-5.33,8.93-13.11,16.24-20.11,23.95-3.92,4.31-7.84,8.63-11.76,12.94l51.33-43.28,36.02-22.75,19.9-22.27-13.86,23.1s-33.29,16.35-46.32,31.99c-13.03,15.64,9-6.4,23.58-14.57,14.57-8.17,23.46-14.57,40.52-17.06,17.06-2.49,19.19-1.78,19.19-1.78l-31.99,9.95-68.82,41.82s54.31-8.84,64.94,1.86c-12.33,10.16-24.14,22.47-26.68,33.85-.62,1.42-.37,2.05-.37,2.05,0,0,32.75-29.8,89.76-37,.13.11,22.03,19.15,70.85,28.99.03.02.07.05.1.07,3.68.75,7.41,1.4,11.16,1.95.16.02.3.05.46.06,9.75,1.42,19.42,2.14,29.55,2.14,27.45,0,53.64-5.41,77.56-15.22,1.02-5.23-7.3-10.46-.81-27.77,8.53-22.75,18.01-35.07,18.01-35.07l-16.43,8.81c12.07-22.66,30.12-45.82,56.71-59.52,0,0,16.45,5.02,26.9,9.71,1.59,2.92,4.64,7.95,5.09,8.8,2.07,3.89,3.63,8.04,4.67,12.32,2.07,8.56,2.02,17.64-.31,26.14-.2.74-.41,1.55-.07,2.23.65,1.28,2.53,1.01,3.87.49,23.39-9.06,33.35-30.28,42.66-51.88,8.89-20.61,7.46-52.6-2.13-82.1ZM446.38,180.86c3.18,2.48,4.11,5.04,4.23,6.99-1.81,8.06-9.92,20.38-15.96,24.64-6.04,4.26-12.44,4.98-29.5,10.66-17.06,5.69-20.61,2.46-20.61,2.46,1.93-2.08,4.33-6.45,6.76-11.73.08.24.16.48.27.7,2.42,4.48,12.99,3.47,23.62-2.26,10.63-5.73,17.29-14.01,14.87-18.49-2.42-4.48-12.99-3.47-23.62,2.26-4.61,2.48-8.46,5.44-11.16,8.37,3.52-8.95,6.5-18.27,7.38-23.14,1.78-9.85,12.79-14.32,21.68-12.54,8.89,1.78,22.04,12.08,22.04,12.08ZM290.47,247.56s-40.75-9.48-48.57-13.03l10.43-.24s30.33,2.37,47.86-6.4c16.91-8.45,29.83-25.47,35.62-34.33,12.67,3.18,30.82,2.17,44.94-7.73,6.77-3.64,13.19-10.61,16.58-14.65-2.69,3.92-6.78,11.66-8.17,23.99-2.13,18.94-14.81,33.87-14.81,33.87-7.58,10.16-37.91,16.14-37.91,16.14,0,0-28.67,1.42-45.73-2.61-17.06-4.03-26.54-6.45-26.54-6.45l26.3,11.43ZM161.81,94.13c65.85-52.54,136.01-15.27,136.01-15.27-30.57-23.1-60.78-26.3-60.78-26.3,51.32-13.93,92.04,5.24,112.49,18.58l14.4,10.92c-4.98-11.73-25.59-34.12-25.59-34.12,47.3,26.53,61.49,61.84,61.49,61.84,0,0,13.86,6.75,26.66,21.68,10.91,12.73,11.48,27.51,11.42,31.6-1.87-.37-4.12-2.33-6.79-7.07-9.61-17.05-17.77-17.42-17.77-17.42,7.46,13.15,1.07,21.68,1.07,21.68-7.82-18.13-25.23-26.66-25.23-26.66,4.79,9.58,5.84,25.14-2.1,33.42-7.43,7.75-21.2,9.16-31.35,9.29-17.37.22-38.49-2.03-51.14-15.34,0,0-23.69-20.26-28.02-36.61,0,0-1.84,12.08,4.92,22.39,0,0-63.97-30.92-85.65-34.83,0,0,34.12-8.17,57.22,0-2.04-.72-4.23-2.97-6.13-4.06-6.21-3.55-12.89-6.26-19.69-8.43-18.65-5.98-38.44-9.68-57.84-5.22-3.73.86-7.42,2.01-10.76,3.86.27-1.45,2.07-2.6,3.2-3.92ZM249.3,170.2c5.86-13.51,23.28-7.46,23.28-7.46,0,0,.36.19,1.03.55-5.29,3.27-8.83,9.11-8.83,15.79,0,10.26,8.87,18.85,19.13,18.85,1.87,0,3.97-.33,5.93-.89-1.22.87-2.46,1.71-3.86,2.22-2,.72-4.18.72-6.3.56-1.62-.12-3.24-.33-4.84-.63-.84-.16-3.99-1.34-4.54-.88.86,1.27,3.93,2.17,5.37,2.75,5.94,2.41,12.7,3.4,18.77,1.35,4.39-1.48,8.19-4.49,10.97-8.19,2.59-3.45,4.34-7.49,5.43-11.67,1.15.58,2.29,1.14,3.4,1.7-1.57,5.73-6.42,19.09-18.56,24.33-15.64,6.75-31.99,1.07-37.67-4.62-5.69-5.69-14.57-20.26-8.71-33.76ZM209.91,138.57h-26.06s49.4-11.73,92.7,17.42c0,0-27.31-14.93-66.64-17.42ZM124.2,132.38c2.21-2.17,4.43-4.34,6.77-6.34,3.19-2.72,6.61-5.11,10.17-7.13.93-.53,26.98-16.02,28.75-16.6-5.86,4.51-34.98,24.03-38.69,28.12,13.46-15.4-8,3.06-7,1.95ZM81.69,173.78c3.35-2.96,6.7-5.93,10.05-8.89.29-.26.6-.55.68-.93.12-.59-.39-1.15-.97-1.31-.58-.16-1.19-.02-1.77.12-2.63.65-5.23,1.41-7.8,2.28l53.13-28.81c1.04-.27,15.17-7.73,16.24-7.64-.27.51-33.62,24.27-34.07,24.64-5.01,4.06-30.48,24.18-35.49,28.24-.84-.08,31.55-28.94,30.78-28.52-5.69,3.11-25.1,17.72-30.78,20.83ZM118.23,168.78c-4.26,3.04-8.35,6.34-12.27,9.79-2.18,1.92-4.31,3.89-6.37,5.93-3.29,3.27-6.49,6.56-8.83,10.65.21-2.79.69-5.56,1.45-8.26-4.01,5.59-7.82,11.31-11.44,17.15.56-4.33,1.54-8.67,3.55-12.55,1.55-2.99,3.85-5.98,6.77-7.75,2.81-1.7,5.9-2.18,8.77-4.13,4.15-2.83,13.01-10.21,19.96-11.85-.54.3-1.07.63-1.58,1ZM100.29,173.78s20.18-12.56,20.2-12.57c4.22-3.47,10.37-6.01,14.2-10.02,5.21-5.45,12.91-8.41,12.91-8.41-4.41,0-8.64,1.91-12.3,4.21-3.06,1.92-5.92,4.14-8.76,6.37-2.36,1.85-5.04,3.59-7.34,5.12.4-.27.1-.98-.37-1.08s-.94.17-1.35.43c-2.33,1.48-4.71,3.02-6.34,5.25-.49.67-19.61,15.31-20.45,15.35,3.2-3.94,24.85-20.79,28.92-23.8,2.94-2.17,6.09-4.13,8.9-6.47,1.4-1.16,2.98-2.11,4.45-3.19,7.92-5.79,15.98-11.39,24.11-16.87,2.66-1.79,5.32-3.57,7.97-5.37,1.27-.87,2.68-2.28,4.09-2.91,5.66-2.52-30.71,21.62-24.53,21.56,3.1-.03,6.15.53,9.14,1.37l-.05.08c-10.13,1.22-20.77,9.98-9.52,7.96l-43.88,22.98ZM47.39,267.76c19.57-15.68,40.15-39.32,53.17-57.73,3.24-4.58,9.13-7.45,14.45-9.21-3.62,2.28-7.54,5.23-10.78,8.83-8.53,9.48-27.49,34.53-27.49,34.53,0,0-14.02,15.06-29.36,23.59ZM74.69,265.05c-4.44,1.4-8.79,2.71-14.33,4.17-2.03.53-14.96,1.65-17.05,1.52,3.46-.08,17.91-3.73,21.26-4.77,2.5-.77,4.98-1.57,7.46-2.4,3.66-1.23,7.42-2.44,10.88-4.17,6.01-3-13.62-.1-13.62-.1l48.14-19.65-31.2,7.91s58.86-33.25,65.02-35.91c-6.88,6.19-24.08,21.18-29.5,28.68-2.63,3.63.06,6.57,4.32,6.11-5.38.59-11.01,1.16-11.41,1.17-3.16.11-6.31.68-9.31,1.68-9.58,3.21-27.98,26.75-22.89,18.4.54-.89,1.49-2.07,1.54-3.12-2.46.94-4.76,2.64-6.95,4.07-6.71,4.38-12.13,10.31-16.92,16.69-.94,1.26-1.86,2.53-2.76,3.82-.76,1.09-2.41,2.79-2.7,4.09.57-2.59,1.75-8.38.76-10.85s-3.37-4.51-6.02-4.45c5.99-2.13,11.78-5.16,17.58-7.76,5.95-2.67,11.83-5.43,17.63-8.34-3.13,1.39-6.67,2.18-9.93,3.21ZM53.16,304.09c-.05-.05-.1-.11-.14-.17-.19-.31-.17-.74-.07-1.1.46-1.69,2.37-2.51,3.74-3.33,1.88-1.12,3.74-2.29,5.58-3.48,3.59-2.35,7.1-4.84,10.51-7.45,10.88-8.31,17.15-20.66,27.7-29.15,3.12-2.51,12.14-5.7,20.49-8.59-.8.51-1.6,1.04-2.41,1.53-4.69,2.86-9.6,5.39-13.98,8.71-4.76,3.61-9.2,7.8-13.62,11.82-6.23,5.65-17.41,23.52-22.16,31.34-6.15,3.76-22.39,17.95-22.39,17.95,0,0,27.13-30.42,27.13-30.43-1.63,1.97-4.2,3.57-6.23,5.07-2.23,1.65-4.52,3.21-6.89,4.65-1.36.83-5.62,4.19-7.27,2.62ZM141.1,234.29c-.23,1.62-56.59,71.04-67.27,79.6-3.29,2.64,30.75-36.93,2.62-14.52l64.65-65.08ZM92.39,328.71s-47.13,27.55-47.42,27.72c2.12-1.24,4.28-5.85,3.5-8.18-.46-1.39-1.69-2.5-3.13-2.82,1.37.13,2.62-.71,3.69-1.56,8.01-6.3,13.82-15.34,16.23-25.25-.04,1.69.85,3.37,2.26,4.29,3.15,2.05,66.25-53.57,68.96-55.15l-72.53,69.48,28.43-8.53ZM198.54,384.51c-28.43,0-54.02-.95-90.04,18.96-10.41,5.75-17.56,10.42-22.48,14.15h0s35.39-40.93,83.61-39.86c16.94.37,33.04,4.15,46.82,8.88-5.68-1.3-11.73-2.13-17.91-2.13ZM320.58,390.06c-5.11-14.63-5.47-39.19-5.47-39.19-12.98,11.81-16.59,55.44-16.59,55.44-22.75-42.65,2.84-78.19,2.84-78.19-22.65,12.19-34.83,64.92-34.83,64.92-19.67-42.18,3.08-88.14,3.08-88.14-21.35,12.36-28.49,55.81-30.54,73.47-5.61-9.12-10.32-23.52-9.28-45.87,0,0-13.26,28.31-14.2,41.11,0,0-25.3-49.64,29.38-89.56,0,0-40.28,8.62-75.35,82.03,0,0,4.15-64.38,47.15-99.21,0,0-28.24,16.89-51.92,44.96,1.36-8.22,4.51-18.99,11.76-28.77l-16.35,4.43,44.78-30.92s-44.78,14.22-68.95,33.76c-24.17,19.55-33.41,26.3-33.41,26.3,0,0,32.7-54.17,73.93-76.66,0,0-29.5,8.78-55.44,31.88l3.39-5.08c24.38-34.25,74.44-62.57,74.44-62.57-18.84-2.61-53.31,23.09-53.31,23.09l15.28-23.08c-13.15-.47-36.37,14.27-36.37,14.27l-13.74,7.14s32.22-40.13,88.14-43.45c0,0-35.07-4.07-70.17,11.72,4.8-6.51,14.02-13.11,20.95-17.52,27.78-16.47,60.12-20.26,60.12-20.26-20.13-3.73-41.76,3.11-48.37,5.29l4.81-3.09c10.27-5.33,39.88-18.78,51.84-3.84,3.78,5.48,8.83,15.67,11.82,33.39l-28.87-13.74s29.82,29.5,39.26,34.47c9.43,4.98,30.05,18.84,54.57,8.17,16.02-6.96,23.24-14.86,26.32-19.49l-2.15,4.09s-12.56,26.06-45.73,26.3h-40.99s-4.03.24-1.66,3.08c2.37,2.84,5.58,8.75,15.64,15.4,0,0,17.53,16.11,52.13,17.06l34.59.95s-53.55,17.06-94.78,40.75l72.98-23.1s-34.12,36.84-40.75,62.91c0,0,49.28-69.66,78.19-70.13,0,0-50.68,35.72-47.39,94.78,0,0,10.31-63.31,62.55-87.55,0,0-36.96,24.89-37.91,76.12,0,0,13.74-52.07,52.6-68.66,0,0-45.86,31.76-58.03,100.8ZM426.69,291.06c-15.88-7.75-25.24-13.14-39.55-20.28-11.02-5.5-36.49-13.74-70.61-13.74s-51.89-5.21-63.74-14.45c0,0,27.01,7.82,49.76,9.24,14.47.9,39.19,2.38,57.17,4.2.19.02,36.23,4.84,50.76,15.83,12.27,9.28,18.62,13.3,26.33,23.46-1.72-.69-8.76-3.58-10.11-4.24ZM460.95,339.02c1.98-11.26-3.29-25.14-8.37-35.27,0,0-2.69-5.91-6.22-12.43,4.36,3.45,15.61,13,19.56,22.82,0,0,2.84-46.2-66.11-64.68,3.84,1.56,7.58,3.4,11.25,5.32,7.98,4.17,15.79,8.95,22.55,14.93,3.37,2.98,6.35,6.27,8.83,10.03,1.63,2.47.41,3.92-2.27,2.37-1.9-1.09-3.19-3.06-4.8-4.49-2.59-2.29-5.25-4.49-7.99-6.6-6.57-5.07-13.61-9.71-21.24-13.03-14.82-6.45-31.86-9.78-45.74-10.21l13.76-6.64c20.18-9.74,24.23-8.74,45.91-15.98,21.68-7.24,27.01-14.44,30.33-19.77,1.96-3.15,3.91-7.76,5.18-11.03l.03.02s27.37,14.22,31.99,64.33c4.62,50.11-26.66,80.32-26.66,80.32Z"/>
      <path class="cls-2" d="M307.61,179.07s-2.42-1.78-4.71-3.46c.22,1.12.35,2.27.35,3.44,0,9.3-7.21,17.35-16.57,18.65-2.55.59-5.29,1.1-7.85,1.1,0,0-7.64,0-11.02-1.95,1.11.64,2.03,1.52,3.22,2.09,3.25,1.55,6.91,2.12,10.49,2.12,3.26,0,6.55-.24,9.71-1.07s5.79-2.45,8.26-4.73c3.4-3.14,6.15-7.08,7.39-11.58.16-.57,1.22-4.26.73-4.62Z"/>
      <circle class="cls-2" cx="260.46" cy="169.37" r="12.32"/>
      <circle class="cls-2" cx="275.8" cy="181.59" r="3.16"/>
    </g>
  </g>
</svg>